<?xml version="1.0" encoding="UTF-8" standalone="no" ?>
<!DOCTYPE svg PUBLIC "-//W3C//DTD SVG 1.1//EN" "http://www.w3.org/Graphics/SVG/1.1/DTD/svg11.dtd">
<svg xmlns="http://www.w3.org/2000/svg" xmlns:xlink="http://www.w3.org/1999/xlink" version="1.1" width="1080" height="1080" viewBox="0 0 1080 1080" xml:space="preserve">
<desc>Created with Fabric.js 5.2.4</desc>
<defs>
</defs>
<g transform="matrix(1 0 0 1 540 540)" id="c6c612cb-d0a2-4342-991f-9499fd5879c7"  >
<rect style="stroke: none; stroke-width: 1; stroke-dasharray: none; stroke-linecap: butt; stroke-dashoffset: 0; stroke-linejoin: miter; stroke-miterlimit: 4; fill: rgb(255,255,255); fill-rule: nonzero; opacity: 1; visibility: hidden;" vector-effect="non-scaling-stroke"  x="-540" y="-540" rx="0" ry="0" width="1080" height="1080" />
</g>
<g transform="matrix(1 0 0 1 540 540)" id="06841494-1530-4c45-9651-6befc0e12921"  >
</g>
<g transform="matrix(15.72 0 0 15.72 654.16 681.33)" id="c3137254-ac98-4ff0-bddd-89c57bc1ff9a"  >
<path style="stroke: rgb(0,0,0); stroke-width: 0; stroke-dasharray: none; stroke-linecap: butt; stroke-dashoffset: 0; stroke-linejoin: miter; stroke-miterlimit: 4; fill: rgb(13,128,216); fill-rule: nonzero; opacity: 1;" vector-effect="non-scaling-stroke"  transform=" translate(-23.66, -23.94)" d="M 4.2 36.3 C 7.8 34 12 30 10.4 25.4 C 9.5 22.799999999999997 8.4 20.7 8.100000000000001 17.9 C 8.000000000000002 15.499999999999998 8.3 13.2 9.100000000000001 11.099999999999998 C 12.4 2.4 21.9 -1.8 30.5 0.8 C 38.4 3.2 43.9 12.600000000000001 40.6 20.6 C 38.7 25.3 37.800000000000004 29 42.1 32.6 C 43.300000000000004 33.6 46 35.1 46 36.9 C 46 39.199999999999996 41.5 36.4 41.1 36 C 41.7 37 47.300000000000004 42.9 43.7 43.3 C 40.400000000000006 43.699999999999996 37.5 39 35.6 37.099999999999994 C 32.300000000000004 33.699999999999996 32.800000000000004 41.099999999999994 32.800000000000004 42.699999999999996 C 32.800000000000004 45.099999999999994 31.100000000000005 49.99999999999999 28.100000000000005 46.8 C 25.600000000000005 44.199999999999996 26.600000000000005 40 24.800000000000004 37 C 22.900000000000006 33.8 19.700000000000003 40.2 18.900000000000006 41.4 C 18.000000000000007 42.699999999999996 13.600000000000005 49 11.800000000000006 45.699999999999996 C 10.300000000000006 42.99999999999999 12.700000000000006 38.599999999999994 13.800000000000006 36.099999999999994 C 13.400000000000006 36.99999999999999 10.500000000000007 38.3 9.700000000000006 38.699999999999996 C 7.900000000000007 39.699999999999996 5.800000000000006 40.199999999999996 3.7000000000000064 40.099999999999994 C -1 39.9 2.4 37.5 4.2 36.3 z" stroke-linecap="round" />
</g>
<g transform="matrix(11.05 0 0 11.05 293.66 293.66)"  >
<g style="" vector-effect="non-scaling-stroke"   >
		<g transform="matrix(1 0 0 1 0 0)"  >
<path style="stroke: none; stroke-width: 1; stroke-dasharray: none; stroke-linecap: butt; stroke-dashoffset: 0; stroke-linejoin: miter; stroke-miterlimit: 4; fill: rgb(92,45,145); fill-rule: nonzero; opacity: 1;" vector-effect="non-scaling-stroke"  transform=" translate(-24, -24)" d="M 24 48 C 37.255 48 48 37.255 48 24 C 48 10.744999999999997 37.255 0 24 0 C 10.744999999999997 0 0 10.745 0 24 C 0 37.255 10.745 48 24 48 z" stroke-linecap="round" />
</g>
		<g transform="matrix(1 0 0 1 -3 3)"  >
<path style="stroke: none; stroke-width: 1; stroke-dasharray: none; stroke-linecap: butt; stroke-dashoffset: 0; stroke-linejoin: miter; stroke-miterlimit: 4; fill: rgb(255,255,255); fill-rule: nonzero; opacity: 0.1;" vector-effect="non-scaling-stroke"  transform=" translate(-21, -27)" d="M 8.049 6 C 1.3865073646107824 11.93482808876109 -1.4422175021353674 21.070731009590826 0.7009183375447225 29.73202198336846 C 2.8440541772248134 38.393312957146094 9.606687042853899 45.15594582277518 18.26797801663153 47.29908166245527 C 26.92926899040916 49.442217502135364 36.065171911238906 46.61349263538922 41.99999999999999 39.95100000000001 z" stroke-linecap="round" />
</g>
		<g transform="matrix(1 0 0 1 -0.41 -0.32)"  >
<path style="stroke: none; stroke-width: 1; stroke-dasharray: none; stroke-linecap: butt; stroke-dashoffset: 0; stroke-linejoin: miter; stroke-miterlimit: 4; fill: rgb(255,255,255); fill-rule: nonzero; opacity: 1;" vector-effect="non-scaling-stroke"  transform=" translate(-23.59, -23.68)" d="M 6.133 30.513 C 5.853852747829305 30.51760821884663 5.585513179350997 30.40519569691653 5.393 30.203000000000003 C 5.1954923980079135 30.007854024619228 5.086073051490017 29.74062525754582 5.09 29.463000000000005 C 5.087900224421817 29.18572403660622 5.197039837045046 28.919178448021437 5.393 28.723000000000006 C 5.583525845839103 28.517020759081444 5.852438023731555 28.40146120155469 6.132999999999999 28.405000000000005 C 6.4130161538329205 28.40416720781321 6.6808866405683895 28.51927911968061 6.873 28.723000000000006 C 7.072297500781174 28.917496939132207 7.184161450875945 29.184527013551982 7.183 29.463000000000005 C 7.185915167486431 29.741818811289097 7.073774069814448 30.009510463796413 6.873 30.203000000000003 C 6.679035497709278 30.40307914474382 6.411656648116708 30.515089203356926 6.133 30.513 z M 20.83 30.328 L 18.892999999999997 30.328 L 11.961999999999996 19.573 C 11.78926360953103 19.307641216891245 11.645125898078394 19.02472905766793 11.531999999999996 18.729 L 11.472999999999997 18.729 C 11.538999999999998 19.343 11.563999999999997 19.961 11.546999999999997 20.579 L 11.546999999999997 30.328000000000003 L 9.972 30.328000000000003 L 9.972 16.843 L 12.020999999999999 16.843 L 18.767 27.406 C 19.048 27.845 19.23 28.145999999999997 19.314 28.308999999999997 L 19.351 28.308999999999997 C 19.273 27.650999999999996 19.241 26.988999999999997 19.255 26.325999999999997 L 19.255 16.842999999999996 L 20.831 16.842999999999996 z M 31.497 30.328 L 24.33 30.328 L 24.33 16.843 L 31.165 16.843 L 31.165 18.271 L 25.942999999999998 18.271 L 25.942999999999998 22.753 L 30.81 22.753 L 30.81 24.173000000000002 L 25.942999999999998 24.173000000000002 L 25.942999999999998 28.849000000000004 L 31.505999999999997 28.849000000000004 z M 42.082 18.27 L 38.162 18.27 L 38.162 30.328 L 36.586 30.328 L 36.586 18.27 L 32.71 18.27 L 32.71 16.842 L 42.082 16.842 z" stroke-linecap="round" />
</g>
</g>
</g>
</svg>